<svg width="24" height="24" viewBox="0 0 24 24" fill="none" xmlns="http://www.w3.org/2000/svg">
<rect width="24" height="24" fill="black"/>
<path d="M1.68203 11L4.99036 3.23333H5.00703L8.31537 11H6.80703L6.2487 9.66667H3.6987L3.14036 11H1.68203ZM4.1987 8.46667H5.7487L5.4237 7.7C5.33481 7.49444 5.25148 7.29722 5.1737 7.10833C5.10148 6.91389 5.03203 6.68889 4.96536 6.43333C4.90425 6.68333 4.83759 6.90556 4.76536 7.1C4.69314 7.29444 4.61259 7.49444 4.5237 7.7L4.1987 8.46667ZM9.21406 11V3.5H11.7641C12.3641 3.5 12.9085 3.59722 13.3974 3.79167C13.8918 3.98611 14.3168 4.25556 14.6724 4.6C15.0335 4.93889 15.3113 5.33611 15.5057 5.79167C15.7002 6.24722 15.7974 6.73333 15.7974 7.25C15.7974 7.76667 15.7002 8.25278 15.5057 8.70833C15.3113 9.16389 15.0335 9.56389 14.6724 9.90833C14.3168 10.2472 13.8918 10.5139 13.3974 10.7083C12.9085 10.9028 12.3641 11 11.7641 11H9.21406ZM10.6641 9.65H11.6307C12.053 9.65 12.4252 9.58889 12.7474 9.46667C13.0696 9.33889 13.3391 9.16667 13.5557 8.95C13.778 8.72778 13.9446 8.47222 14.0557 8.18333C14.1724 7.89444 14.2307 7.58333 14.2307 7.25C14.2307 6.91667 14.1724 6.60556 14.0557 6.31667C13.9446 6.02222 13.778 5.76667 13.5557 5.55C13.3391 5.32778 13.0696 5.15556 12.7474 5.03333C12.4252 4.91111 12.053 4.85 11.6307 4.85H10.6641V9.65ZM19.1961 11.25L16.0461 3.5H17.6294L18.8544 6.58333C18.9211 6.75556 18.9878 6.925 19.0544 7.09167C19.1211 7.25278 19.185 7.43333 19.2461 7.63333C19.3016 7.43889 19.36 7.26389 19.4211 7.10833C19.4878 6.94722 19.5572 6.77222 19.6294 6.58333L20.8544 3.5H22.3628L19.2128 11.25H19.1961ZM3.46602 21V13.5H7.46602V14.8H4.91602V15.95H6.88268V17.2H4.91602V19.65H7.46602V21H3.46602ZM14.616 21.25L10.116 16.7583V21H8.71602V13.25L13.216 17.7333V13.5H14.616V21.25ZM15.766 14.85V13.5H20.9827V14.85H19.1493V21H17.5993V14.85H15.766Z" fill="white"/>
</svg>
